<?xml version="1.0" encoding="UTF-8"?>
<svg width="790px" height="178px" viewBox="0 0 790 178" version="1.1" xmlns="http://www.w3.org/2000/svg" xmlns:xlink="http://www.w3.org/1999/xlink">
    <!-- Generator: Sketch 44.1 (41455) - http://www.bohemiancoding.com/sketch -->
    <title>Mapbox_Logo</title>
    <desc>Created with Sketch.</desc>
    <defs></defs>
    <g id="Page-1" stroke="none" stroke-width="1" fill="none" fill-rule="evenodd">
        <g id="Mapbox_Logo" fill-rule="nonzero" fill="#FFFFFF">
            <g id="Group" transform="translate(219.000000, 19.000000)">
                <path d="M370.6,29.8 C360.7,29.8 351.2,33.9 344.3,41.1 L344.3,3 C344.3,1.8 343.3,0.8 342.1,0.8 L342.1,0.8 L328.7,0.8 C327.5,0.8 326.5,1.8 326.5,3 L326.5,106 C326.5,107.2 327.5,108.2 328.7,108.2 L342.1,108.2 C343.3,108.2 344.3,107.2 344.3,106 L344.3,106 L344.3,98.9 C351.2,106.1 360.6,110.2 370.6,110.2 C391.5,110.2 408.4,92.2 408.4,70 C408.4,47.8 391.5,29.8 370.6,29.8 Z M367.5,94.1 C354.8,94.1 344.5,83.5 344.4,70.3 L344.4,69.7 C344.6,56.5 354.8,45.9 367.5,45.9 C380.3,45.9 390.6,56.7 390.6,70 C390.6,83.3 380.2,94.1 367.5,94.1 L367.5,94.1 Z" id="Shape"></path>
                <path d="M457.7,29.8 C435.1,29.8 416.8,47.8 416.8,70 C416.8,92.2 435.1,110.2 457.7,110.2 C480.3,110.2 498.6,92.2 498.6,70 C498.6,47.8 480.3,29.8 457.7,29.8 Z M457.6,94.1 C444.8,94.1 434.5,83.3 434.5,70 C434.5,56.7 444.9,45.9 457.6,45.9 C470.3,45.9 480.7,56.7 480.7,70 C480.7,83.3 470.3,94.1 457.6,94.1 L457.6,94.1 Z" id="Shape"></path>
                <path d="M207.6,31.8 L194.2,31.8 C193,31.8 192,32.8 192,34 L192,34 L192,41.1 C185.1,33.9 175.7,29.8 165.7,29.8 C144.8,29.8 127.9,47.8 127.9,70 C127.9,92.2 144.8,110.2 165.7,110.2 C175.6,110.2 185.1,106.1 192,98.9 L192,106 C192,107.2 193,108.2 194.2,108.2 L194.2,108.2 L207.6,108.2 C208.8,108.2 209.8,107.2 209.8,106 L209.8,106 L209.8,34 C209.8,32.8 208.8,31.8 207.6,31.8 Z M168.8,94.1 C156,94.1 145.7,83.3 145.7,70 C145.7,56.7 156.1,45.9 168.8,45.9 C181.5,45.9 191.8,56.5 191.9,69.7 L191.9,70.3 C191.8,83.5 181.5,94.1 168.8,94.1 L168.8,94.1 Z" id="Shape"></path>
                <path d="M274.5,29.8 C264.6,29.8 255.1,33.9 248.2,41.1 L248.2,34 C248.2,32.8 247.2,31.8 246,31.8 L246,31.8 L232.6,31.8 C231.4,31.8 230.4,32.8 230.4,34 L230.4,34 L230.4,137 C230.4,138.2 231.4,139.2 232.6,139.2 L232.6,139.2 L246,139.2 C247.2,139.2 248.2,138.2 248.2,137 L248.2,137 L248.2,98.9 C255.1,106.1 264.5,110.2 274.5,110.2 C295.4,110.2 312.3,92.2 312.3,70 C312.3,47.8 295.4,29.8 274.5,29.8 Z M271.4,94.1 C258.7,94.1 248.4,83.5 248.3,70.3 L248.3,69.7 C248.5,56.5 258.7,45.9 271.4,45.9 C284.2,45.9 294.5,56.7 294.5,70 C294.5,83.3 284.2,94.1 271.4,94.1 L271.4,94.1 Z" id="Shape"></path>
                <path d="M87.8,29.8 C77.8,29.9 68.7,35.7 64.4,44.8 C59.5,35.5 49.7,29.7 39.2,29.8 C31,29.8 23.3,33.8 18.5,40.4 L18.5,34 C18.5,32.8 17.5,31.8 16.3,31.8 L16.3,31.8 L2.9,31.8 C1.7,31.8 0.7,32.8 0.7,34 L0.7,34 L0.7,106 C0.7,107.2 1.7,108.2 2.9,108.2 L2.9,108.2 L16.3,108.2 C17.5,108.2 18.5,107.2 18.5,106 L18.5,106 L18.5,62.9 C19,53.3 25.7,45.6 33.9,45.6 C42.4,45.6 49.5,52.7 49.5,62 L49.5,106 C49.5,107.2 50.5,108.2 51.7,108.2 L65.2,108.2 C66.4,108.2 67.4,107.2 67.4,106 C67.4,106 67.4,106 67.4,106 L67.3,61.2 C68.5,52.4 74.8,45.6 82.5,45.6 C91,45.6 98.1,52.7 98.1,62 L98.1,106 C98.1,107.2 99.1,108.2 100.3,108.2 L113.8,108.2 C115,108.2 116,107.2 116,106 C116,106 116,106 116,106 L115.9,56.5 C115.9,41.7 103.3,29.8 87.8,29.8 Z" id="Shape"></path>
                <path d="M570.7,105.1 L547.5,69.8 L570.5,34.8 C571.1,33.9 570.8,32.6 569.9,32 C569.6,31.8 569.2,31.7 568.8,31.7 L553.3,31.7 C552.1,31.7 551,32.3 550.4,33.3 L536.9,56 L523.4,33.4 C522.8,32.4 521.7,31.8 520.5,31.8 L505,31.8 C503.9,31.8 503,32.7 503,33.8 C503,34.2 503.1,34.6 503.3,34.9 L526.3,69.9 L503.1,105.2 C502.5,106.1 502.8,107.4 503.7,108 C504,108.2 504.4,108.3 504.8,108.3 L520.3,108.3 C521.5,108.3 522.6,107.7 523.2,106.7 L537,83.7 L550.8,106.7 C551.4,107.7 552.5,108.3 553.7,108.3 L569,108.3 C570.1,108.3 571,107.4 571,106.3 C571,105.9 570.9,105.5 570.7,105.1 Z" id="Shape"></path>
            </g>
            <g id="Group">
                <path d="M88.9,0.1 C39.8,0.1 0,39.9 0,89 C0,138.1 39.8,177.9 88.9,177.9 C138,177.9 177.8,138.1 177.8,89 C177.8,39.9 138,0.1 88.9,0.1 Z M131.1,110.8 C100.7,141.2 46.4,131.5 46.4,131.5 C46.4,131.5 36.6,77.3 67.1,46.8 C84,29.9 112,30.6 129.7,48.2 C147.4,65.8 148,93.9 131.1,110.8 L131.1,110.8 Z" id="Shape"></path>
                <polygon id="Shape" points="99.1 52.2 90.4 70.1 72.5 78.8 90.4 87.5 99.1 105.4 107.8 87.5 125.7 78.8 107.8 70.1"></polygon>
            </g>
        </g>
    </g>
</svg>