<?xml version="1.0" encoding="utf-8"?>
<!-- Generator: Adobe Illustrator 19.0.0, SVG Export Plug-In . SVG Version: 6.00 Build 0)  -->
<svg version="1.1" id="Layer_1" xmlns="http://www.w3.org/2000/svg" xmlns:xlink="http://www.w3.org/1999/xlink" x="0px" y="0px"
	 width="135px" height="120px" viewBox="0 0 135 120" style="enable-background:new 0 0 135 120;" xml:space="preserve">
<style type="text/css">
	.st0{fill:#223B53;}
	.st1{fill:none;stroke:#FFFFFF;stroke-width:6.6481;stroke-miterlimit:10;}
	.st2{fill:#F9AC35;}
	.st3{fill:#F29419;}
	.st4{fill:#F9B355;}
</style>
<g id="XMLID_81_">
	<circle id="XMLID_80_" class="st0" cx="59.8" cy="59.5" r="59.8"/>
	<circle id="XMLID_79_" class="st1" cx="60.3" cy="44.5" r="20"/>
	<g id="Heart_3_">
		<g id="XMLID_84_">
			<path id="XMLID_78_" class="st2" d="M86.5,70c3.1-3.1,5-7.4,5-12c0-9.4-7.6-17-17-17c-6.2,0-11.6,3.3-14.6,8.3
				c-3-5-8.4-8.3-14.6-8.3c-9.4,0-17,7.6-17,17c0,4.7,1.9,8.9,5,12l0,0l22.4,22c0.8,1.5,2.4,2.5,4.2,2.5c1.8,0,3.4-1,4.2-2.5
				L86.5,70L86.5,70z"/>
		</g>
	</g>
	<path id="XMLID_77_" class="st3" d="M68.2,63.9c0,4-6.2,11.5-8,13.7c-0.2,0.3-0.7,0.3-1,0c-1.8-2.1-8-9.7-8-13.7
		c0-4.7,3.8-8.5,8.5-8.5C64.4,55.4,68.2,59.2,68.2,63.9z"/>
	<circle id="XMLID_76_" class="st4" cx="59.7" cy="63.3" r="3.9"/>
</g>
</svg>
