<?xml version="1.0" encoding="utf-8"?>
<!-- Generator: Adobe Illustrator 19.0.0, SVG Export Plug-In . SVG Version: 6.00 Build 0)  -->
<svg version="1.1" id="Layer_1" xmlns="http://www.w3.org/2000/svg" xmlns:xlink="http://www.w3.org/1999/xlink" x="0px" y="0px"
	 width="135px" height="120px" viewBox="0 0 135 120" style="enable-background:new 0 0 135 120;" xml:space="preserve">
<style type="text/css">
	.st0{clip-path:url(#SVGID_2_);}
	.st1{fill:#3784BA;}
	.st2{fill:#EFEFEF;}
	.st3{fill:#56B881;}
	.st4{fill:none;}
	.st5{fill:none;stroke:#FFFFFF;stroke-width:5.1058;stroke-miterlimit:10;}
	.st6{fill:#47A06B;}
	.st7{fill:#28353D;}
	.st8{opacity:0.1;fill:#28353D;enable-background:new    ;}
	.st9{opacity:5.000000e-02;fill:#808082;enable-background:new    ;}
	.st10{fill:#CFD1D1;}
	.st11{opacity:0.6;}
	.st12{fill:#C6C6C6;}
	.st13{fill:#FFFFFF;}
	.st14{fill:#8787C1;}
	.st15{fill:#28394C;}
</style>
<g>
	<defs>
		<circle id="SVGID_1_" cx="60" cy="60" r="60"/>
	</defs>
	<clipPath id="SVGID_2_">
		<use xlink:href="#SVGID_1_"  style="overflow:visible;"/>
	</clipPath>
	<g class="st0">
		<path id="XMLID_67_" class="st1" d="M133.3,128.4H-22.2c-0.9,0-1.8-0.6-1.8-1.2V-50.6c0-0.6,0.9-1.2,1.8-1.2h155.5
			c0.9,0,1.8,0.6,1.8,1.2v178.1C134.6,128.1,134.2,128.4,133.3,128.4z"/>
		<g>
			<path class="st2" d="M98.8,62.3c-10.9-7.4-24-11.8-38.2-11.8c-17.8,0-33.9,6.8-46,18L33,105.3c0.6,0.9,0,2.1-0.9,2.4l-33.9,17.4
				c-1.2,0.6-2.7,0-2.7-1.5l-1.9-15.8c-0.5,3.4-0.8,6.8-0.8,10.4c0,37.4,30.3,67.8,67.8,67.8s67.8-30.3,67.8-67.8
				c0-1.1,0-2.2-0.1-3.3c-2.9-0.5-6.3-1.7-10.4-3.9C87.9,95.6,94.5,71.9,98.8,62.3z"/>
			<path class="st3" d="M-1.8,125.1l33.9-17.4c0.9-0.3,1.5-1.5,0.9-2.4L14.6,68.5C3.6,78.6-4,92.4-6.4,107.9l1.9,15.8
				C-4.5,125.1-3,125.7-1.8,125.1z"/>
			<path class="st3" d="M98.8,62.3c-4.3,9.6-10.9,33.3,19.1,48.8c4.1,2.1,7.5,3.3,10.4,3.9C127.2,93,115.8,73.9,98.8,62.3z"/>
		</g>
		<path class="st4" d="M113.4,128.4H6.9c-0.6,0-1.2-0.6-1.2-1.2L6.3-50.9c0-0.6,0.6-1.2,1.2-1.2h105.9c0.6,0,0.6,0.6,0.6,1.2v178.1
			C113.7,128.1,114,128.4,113.4,128.4z"/>
		<path class="st4" d="M113.4,128.4H6.9c-0.6,0-1.2-0.6-1.2-1.2L6.3-50.9c0-0.6,0.6-1.2,1.2-1.2h105.9c0.6,0,0.6,0.6,0.6,1.2v178.1
			C113.7,128.1,114,128.4,113.4,128.4z"/>
		<circle class="st4" cx="60.6" cy="118.2" r="67.8"/>
		<path id="XMLID_65_" class="st5" d="M95,59.9c-6.7,12.7-15.5,41.2,26.2,58.9"/>
		<path id="XMLID_64_" class="st5" d="M1.8,131.1L89.1,87"/>
		<path id="XMLID_63_" class="st5" d="M19.5,64.5l38.4,75"/>
		<path id="XMLID_62_" class="st5" d="M66.9,98.4l1.8,43.2"/>
		<path class="st4" d="M112.8,128.4H6.9c-0.6,0-1.2-0.6-1.2-1.2V-50.6c0-0.6,0.6-1.2,1.2-1.2h105.9c0.6,0,1.2,0.6,1.2,1.2v178.1
			C113.7,128.1,113.4,128.4,112.8,128.4z"/>
		<circle class="st4" cx="59.7" cy="118.2" r="67.8"/>
		<path id="XMLID_55_" class="st6" d="M16.2,85.8c0-0.3,0.6-0.3,0.9,0l2.7,7.2l3,7.8c0,0.3,0,0.6-0.3,0.6H11.1
			c-0.3,0-0.6-0.3-0.3-0.6l3-7.8C13.8,93,16.2,85.8,16.2,85.8z"/>
		<path id="XMLID_54_" class="st7" d="M16.5,103.2c-0.3,0-0.6-0.3-0.6-0.6v-1.2h1.2v1.2C17.1,102.9,16.8,103.2,16.5,103.2z"/>
		<path id="XMLID_53_" class="st8" d="M19.8,104.1h-6.6c-0.3,0-0.6-0.3-0.6-0.6c0-0.3,0.3-0.6,0.6-0.6h6.6c0.3,0,0.6,0.3,0.6,0.6
			C20.7,103.8,20.1,104.1,19.8,104.1z"/>
		<path id="XMLID_25_" class="st9" d="M53.1,71.7c0,0.6-0.6,0.9-1.5,0.9H35.1c-0.9,0-1.5-0.3-1.5-0.9c0-0.6,0.6-0.9,1.5-0.9h16.5
			C52.5,70.8,53.1,71.4,53.1,71.7z"/>
		<path id="XMLID_24_" class="st10" d="M51.3,72H35.4c-0.3,0-0.6-0.3-0.6-0.6c0.3-4.5,4.2-8.1,8.7-8.1s8.1,3.3,8.7,7.8
			C52.2,71.4,51.6,72,51.3,72z"/>
		<g id="XMLID_52_" class="st11">
			<path id="XMLID_425_" class="st2" d="M37.2,67.5c0,0,0-0.3,0.6-0.9c0.3-0.6,0.9-1.2,1.5-1.5c0.6-0.3,1.5-0.6,2.1-0.9h0.9
				c0,0-0.3,0.3-0.9,0.3l-1.8,0.9C38.4,66.6,37.2,67.5,37.2,67.5z"/>
		</g>
		<path id="XMLID_23_" class="st9" d="M81.3,119.7c0,0.3,0.6,0.9,1.2,0.9h13.2c0.6,0,1.2-0.3,1.2-0.9c0-0.3-0.6-0.9-1.2-0.9H82.5
			C81.9,119.1,81.3,119.4,81.3,119.7z"/>
		<path id="XMLID_22_" class="st10" d="M83.1,120H96c0.3,0,0.6-0.3,0.6-0.6c-0.3-3.6-3.3-6.6-6.9-6.6c-3.6,0-6.6,2.7-6.9,6.3
			C82.2,119.7,82.5,120,83.1,120z"/>
		<g id="XMLID_51_" class="st11">
			<path id="XMLID_423_" class="st2" d="M94.5,116.4c0,0-0.9-0.9-2.1-1.5c-0.9-0.6-2.1-1.2-2.1-1.2h0.9c0.6,0,1.2,0.3,1.8,0.6
				c0.6,0.3,0.9,0.9,1.2,1.2C94.2,116.1,94.5,116.4,94.5,116.4z"/>
		</g>
		<path id="XMLID_21_" class="st9" d="M55.2,73.2c0,0.3-0.3,0.6-0.9,0.6h-9.9c-0.6,0-0.9-0.3-0.9-0.6s0.3-0.6,0.9-0.6h9.9
			C54.9,72.6,55.2,72.9,55.2,73.2z"/>
		<path id="XMLID_18_" class="st12" d="M54,73.2h-9.6c-0.3,0-0.3-0.3-0.3-0.3c0.3-2.7,2.4-4.8,5.1-4.8c2.7,0,4.8,2.1,5.1,4.8
			C54.6,72.9,54.3,73.2,54,73.2z"/>
		<g id="XMLID_50_" class="st11">
			<path id="XMLID_421_" class="st2" d="M45.6,70.5c0,0,0-0.3,0.3-0.6l0.9-0.9c0.3-0.3,0.9-0.3,1.2-0.6h0.6c0,0-0.9,0.3-1.8,0.9
				c-0.3,0.3-0.9,0.6-0.9,0.6L45.6,70.5z"/>
		</g>
		<path id="XMLID_49_" class="st6" d="M104.4,61.2c0-0.3,0.6-0.3,0.9,0l2.7,7.2l3,7.8c0,0.3,0,0.6-0.3,0.6H99.3
			c-0.3,0-0.6-0.3-0.3-0.6l3-7.8L104.4,61.2z"/>
		<path id="XMLID_48_" class="st7" d="M105,78.6c-0.3,0-0.6-0.3-0.6-0.6v-1.2h0.9V78C105.3,78.3,105.3,78.6,105,78.6z"/>
		<path id="XMLID_47_" class="st8" d="M108.3,79.5h-6.6c-0.3,0-0.6-0.3-0.6-0.6s0.3-0.6,0.6-0.6h6.6c0.3,0,0.6,0.3,0.6,0.6
			S108.6,79.5,108.3,79.5z"/>
		<ellipse id="XMLID_46_" class="st8" cx="59.1" cy="58.8" rx="7.8" ry="3.9"/>
		<path id="XMLID_45_" class="st13" d="M70.8,38.3c0,5.6-8.6,16.9-11.2,20.1c-0.4,0.4-0.9,0.4-1.3,0c-2.4-3.2-11.2-14.5-11.2-20.1
			c0-6.5,5.2-11.7,11.7-11.7S70.8,31.8,70.8,38.3z"/>
		<circle id="XMLID_44_" class="st14" cx="58.9" cy="36.6" r="4.3"/>
	</g>
</g>
<circle class="st2" cx="112.8" cy="25.2" r="22.2"/>
<path class="st15" d="M124.4,25.6c-0.3,2.7-1.5,5.2-3.4,7.1c-0.7,0.7-1.9,0.7-2.7,0c-0.7-0.7-0.7-1.9,0-2.7c0.3-0.3,0.5-0.5,0.7-0.8
	c0,0,0,0,0,0c0,0,0.1-0.1,0.1-0.1c0.1-0.1,0.2-0.2,0.2-0.3c0.2-0.3,0.3-0.5,0.5-0.8c0.1-0.1,0.1-0.3,0.2-0.4c0,0,0-0.1,0-0.1
	c0.2-0.6,0.4-1.2,0.5-1.8c0,0,0-0.2,0-0.3c0-0.1,0-0.2,0-0.2c0-0.3,0-0.6,0-0.9c0-0.3,0-0.6,0-0.9c0,0,0-0.1,0-0.1
	c0-0.1,0-0.2,0-0.3c-0.1-0.5-0.2-0.9-0.4-1.4c0-0.1-0.1-0.2-0.1-0.4c0,0,0-0.1,0-0.1c-0.1-0.2-0.2-0.4-0.3-0.6
	c-0.2-0.4-0.4-0.7-0.7-1.1c-0.1-0.1-0.1-0.1-0.1-0.2c-0.1-0.1-0.2-0.2-0.2-0.3c-0.2-0.2-0.3-0.3-0.5-0.5c-0.2-0.2-0.3-0.3-0.5-0.5
	c0,0,0,0,0,0c-0.1-0.1-0.2-0.1-0.3-0.2c-0.4-0.3-0.9-0.5-1.3-0.8c-0.1,0-0.1-0.1-0.2-0.1c0,0-0.1,0-0.1,0c-0.2-0.1-0.5-0.2-0.7-0.2
	c-0.3-0.1-0.5-0.2-0.8-0.2c-0.1,0-0.2,0-0.4-0.1c0,0,0,0,0,0c-0.5-0.1-1-0.1-1.5-0.1c-0.2,0-0.4,0-0.6,0c0,0,0,0-0.1,0c0,0,0,0,0,0
	c-0.3,0-0.6,0.1-0.8,0.2c-0.3,0.1-0.5,0.1-0.8,0.2c-0.1,0-0.3,0.1-0.4,0.1c0,0,0,0-0.1,0c-0.3,0.1-0.6,0.3-0.9,0.5
	c0.2,0,0.5,0,0.7,0c1,0,1.9,0.9,1.9,1.9c0,1-0.9,1.9-1.9,1.9c-1.7,0-3.4,0-5.2,0.1c-1,0-1.9-0.9-1.9-1.9l0,0v0c0-1.7,0-3.4-0.1-5.2
	c0-1,0.9-1.9,1.9-1.9c1,0,1.9,0.9,1.9,1.9c0,0.1,0,0.3,0,0.4c1.7-1.2,3.7-1.9,5.8-2c4.6-0.4,9.2,2.1,11.3,6.2
	C124.2,20.8,124.7,23.2,124.4,25.6z M102.9,22.4c1,0,1.9,0.9,1.9,1.9c0,0.3,0,0.7,0,1c0,0,0,0.1,0,0.1c0,0,0,0,0,0
	c0,0.2,0.1,0.3,0.1,0.5c0.1,0.3,0.2,0.6,0.3,0.9c0,0.2,0.1,0.3,0.2,0.5c0,0,0,0.1,0,0.1c0.2,0.5,0.5,1.1,0.9,1.6
	c0.1,0.1,0.1,0.2,0.2,0.3c0.1,0.1,0.1,0.2,0.2,0.2c0.2,0.2,0.4,0.4,0.6,0.6c0.2,0.2,0.5,0.4,0.7,0.6c0,0,0.1,0,0.1,0.1
	c0.1,0.1,0.3,0.2,0.4,0.3c0.3,0.2,0.5,0.3,0.8,0.5c0.1,0.1,0.3,0.1,0.4,0.2c0,0,0,0,0.1,0c0.5,0.2,1.1,0.4,1.7,0.5
	c-0.2-0.2-0.3-0.4-0.5-0.7c-0.6-0.8-0.1-2.1,0.7-2.6c1-0.6,2-0.2,2.6,0.7c1,1.4,2,2.8,3,4.2c0.6,0.8,0.1,2.1-0.7,2.6
	c-1.4,1-2.8,2-4.2,3c-0.8,0.6-2.1,0.1-2.6-0.7c-0.6-1-0.2-2,0.7-2.6c0.1-0.1,0.2-0.2,0.4-0.3c-2.4-0.4-4.6-1.6-6.3-3.3
	c-2.2-2.2-3.4-5.2-3.4-8.3C101,23.2,101.8,22.4,102.9,22.4z"/>
</svg>
